<svg width="40" height="40" viewBox="0 0 40 40" fill="none" xmlns="http://www.w3.org/2000/svg">
<g clip-path="url(#clip0_6_12)">
<mask id="mask0_6_12" style="mask-type:luminance" maskUnits="userSpaceOnUse" x="0" y="0" width="40" height="40">
<path d="M40 0H0V40H40V0Z" fill="white"/>
</mask>
<g mask="url(#mask0_6_12)">
<path d="M35 0H5C2.23858 0 0 2.23858 0 5V35C0 37.7614 2.23858 40 5 40H35C37.7614 40 40 37.7614 40 35V5C40 2.23858 37.7614 0 35 0Z" fill="white"/>
<path d="M14 32C18.4182 32 22 28.4182 22 23.9999C22 19.5816 18.4182 16 14 16C9.58161 16 6 19.5816 6 23.9999C6 28.4182 9.58161 32 14 32Z" fill="#04E061"/>
<path d="M28.0001 31C30.7615 31 33 28.7614 33 25.9999C33 23.2386 30.7615 21 28.0001 21C25.2386 21 23 23.2386 23 25.9999C23 28.7614 25.2386 31 28.0001 31Z" fill="#FF4053"/>
<path d="M16.0001 15C17.6568 15 19 13.6569 19 12C19 10.3431 17.6568 9 16.0001 9C14.3432 9 13 10.3431 13 12C13 13.6569 14.3432 15 16.0001 15Z" fill="#965EEB"/>
<path d="M26.5 20C30.0899 20 33 17.0898 33 13.5001C33 9.91015 30.0899 7 26.5 7C22.9101 7 20 9.91015 20 13.5001C20 17.0898 22.9101 20 26.5 20Z" fill="#00AAFF"/>
</g>
</g>
<defs>
<clipPath id="clip0_6_12">
<rect width="40" height="40" fill="white"/>
</clipPath>
</defs>
</svg>
