<svg width="40" height="40" viewBox="0 0 40 40" fill="none" xmlns="http://www.w3.org/2000/svg">
<g clip-path="url(#clip0_1_19)">
<path d="M35 0H5C2.23858 0 0 2.23858 0 5V35C0 37.7614 2.23858 40 5 40H35C37.7614 40 40 37.7614 40 35V5C40 2.23858 37.7614 0 35 0Z" fill="#373737"/>
<path d="M16.035 28C18.8931 28 21.2101 25.6826 21.2101 22.824C21.2101 19.9654 18.8931 17.6481 16.035 17.6481C13.1768 17.6481 10.8599 19.9654 10.8599 22.824C10.8599 25.6826 13.1768 28 16.035 28Z" fill="white"/>
<path d="M25.0129 27.347C26.74 27.347 28.14 25.9467 28.14 24.2193C28.14 22.492 26.74 21.0917 25.0129 21.0917C23.2858 21.0917 21.8857 22.492 21.8857 24.2193C21.8857 25.9467 23.2858 27.347 25.0129 27.347Z" fill="white"/>
<path d="M17.025 16.9735C18.0937 16.9735 18.9601 16.107 18.9601 15.0381C18.9601 13.9692 18.0937 13.1027 17.025 13.1027C15.9562 13.1027 15.0898 13.9692 15.0898 15.0381C15.0898 16.107 15.9562 16.9735 17.025 16.9735Z" fill="white"/>
<path d="M23.7979 20.4165C26.1217 20.4165 28.0055 18.5324 28.0055 16.2083C28.0055 13.8841 26.1217 12 23.7979 12C21.4741 12 19.5903 13.8841 19.5903 16.2083C19.5903 18.5324 21.4741 20.4165 23.7979 20.4165Z" fill="white"/>
</g>
<defs>
<clipPath id="clip0_1_19">
<rect width="40" height="40" fill="white"/>
</clipPath>
</defs>
</svg>
