<svg width="60" height="60" viewBox="0 0 60 60" fill="none" xmlns="http://www.w3.org/2000/svg">
<g opacity="0.2" clip-path="url(#clip0_3009_10526)">
<mask id="mask0_3009_10526" style="mask-type:luminance" maskUnits="userSpaceOnUse" x="10" y="9" width="39" height="43">
<path d="M10.9091 9.63464H48.7214V51.9403H10.9091V9.63464Z" fill="white"/>
</mask>
<g mask="url(#mask0_3009_10526)">
<path d="M12.7301 19.476C12.9137 21.9184 13.3447 26.0979 14.3121 30.2528C14.9782 33.1177 15.8981 35.9743 17.1601 38.222C19.035 41.5628 21.6562 44.2185 24.125 46.2016C26.3687 48.0043 28.4869 49.2552 29.8192 49.9648C31.1453 49.2593 33.2573 48.0124 35.5011 46.2118C37.9677 44.2309 40.5932 41.5709 42.474 38.222C43.7301 35.9785 44.65 33.1238 45.3141 30.2568C46.2792 26.0999 46.7123 21.9184 46.8959 19.476C44.487 18.3706 42.7793 16.9104 41.5769 15.403C40.4755 14.023 39.7908 12.6018 39.3702 11.3857H20.2641C19.767 12.8211 18.905 14.5417 17.4159 16.1434C16.2692 17.3822 14.743 18.553 12.7301 19.476ZM12.6168 30.6384C11.5382 25.9933 11.1071 21.3442 10.9503 18.9858L10.9091 18.3686L11.4845 18.1286C13.5262 17.2815 15.0319 16.1578 16.1331 14.9704C17.6305 13.3585 18.4018 11.6193 18.7937 10.2781L18.9771 9.65063H40.655L40.8407 10.2781C41.181 11.443 41.8079 12.9093 42.9382 14.3244C44.0745 15.7456 45.7347 17.1278 48.1415 18.1286L48.7169 18.3686L48.6757 18.9858C48.519 21.3442 48.0859 25.9973 47.0093 30.6423C46.3142 33.6469 45.3387 36.6573 43.992 39.0628C41.9833 42.6414 39.199 45.4675 36.5901 47.5613C33.9955 49.6448 31.5536 51.0251 30.2173 51.7101L29.8171 51.913L29.4212 51.7101C28.0765 51.0209 25.6325 49.6367 23.0359 47.551C20.4228 45.4531 17.6428 42.6312 15.6423 39.0628C14.2913 36.6532 13.3138 33.6406 12.6168 30.6384Z" fill="#7B7B7B"/>
</g>
<path d="M29 17.2511H32.4621C36.1051 17.0356 37.0431 16.9999 37.5842 16.9999H38.1612C45.3388 16.9999 49.0901 18.9724 49.0901 22.7025C49.0901 24.5316 48.2246 25.8589 46.5294 26.7196C45.3753 27.2934 44.5457 27.6523 42.2011 28.1183C44.5457 28.4052 45.5555 28.7642 46.8904 29.4457C49.0542 30.6289 50.2448 32.6014 50.2448 34.8972C50.2448 36.2238 49.7755 37.5512 48.9458 38.5196C47.3231 40.4207 45.0503 41.1736 40.6142 41.1736H29V40.6712C30.1181 40.2052 30.4426 39.6314 30.4426 38.3041V20.1206C30.4426 18.7932 30.1181 18.2195 29 17.7534V17.2511ZM36.3218 27.688H37.9811C41.8401 27.688 43.7879 26.0381 43.7879 22.7382C43.7879 19.7259 41.9125 17.9326 38.8466 17.9326C37.0072 17.9326 36.3218 18.5064 36.3218 20.0485V27.688ZM36.3218 28.8719V38.2684C36.3218 39.7392 37.0431 40.2772 38.955 40.2772C39.9289 40.2772 40.7219 40.1338 41.3714 39.8826C43.1391 39.129 44.4015 36.9054 44.4015 34.4668C44.4015 30.7724 42.2729 28.8719 38.1253 28.8719H36.3218Z" fill="#7B7B7B"/>
<mask id="mask1_3009_10526" style="mask-type:luminance" maskUnits="userSpaceOnUse" x="23" y="16" width="7" height="7">
<path d="M23.8856 16.8937H29.2173V22.3696H23.8856V16.8937Z" fill="white"/>
</mask>
<g mask="url(#mask1_3009_10526)">
<path d="M24.7605 17.9191L24.8165 18.0809C24.8753 18.3063 24.9554 18.5237 25.0274 18.7439L25.0702 18.8473L25.0809 18.8977C25.1022 18.9453 25.1209 18.9957 25.1369 19.0461L25.2464 19.0965C25.3799 19.1205 25.5161 19.1231 25.6469 19.1443C25.8472 19.1709 26.0368 19.2451 26.2344 19.2768C26.432 19.3087 26.6509 19.3618 26.8538 19.4201C26.8753 19.5739 26.8912 19.7304 26.9339 19.8815C26.9766 20.0327 26.9928 20.2211 27.0408 20.3855C27.0888 20.55 27.1103 20.7036 27.1397 20.8628L27.1689 20.9451C27.1904 21.075 27.2198 21.2049 27.2437 21.3349C27.3705 21.3949 27.4933 21.462 27.6122 21.5364C27.9755 21.7565 28.3386 21.9766 28.7177 22.1676C28.8593 22.2471 29.0089 22.3189 29.1691 22.3559C29.3293 22.3931 29.5028 22.2685 29.6603 22.1994C29.9808 22.051 30.2771 21.8599 30.5869 21.6902C30.7471 21.5921 30.902 21.4861 31.0648 21.3959C31.1262 21.3582 31.1832 21.3149 31.2358 21.266C31.2599 21.0943 31.2937 20.9246 31.3372 20.7567C31.4067 20.4756 31.4788 20.1945 31.5268 19.9081L31.5428 19.8339C31.5696 19.7252 31.5775 19.6164 31.607 19.5103L31.6149 19.4333C31.7431 19.375 31.8847 19.3565 32.0234 19.3299C32.2104 19.2849 32.4 19.2504 32.587 19.2C32.8433 19.1337 33.1103 19.1124 33.3693 19.0541C33.412 18.8605 33.4894 18.6776 33.5401 18.4839C33.6337 18.224 33.7005 17.9589 33.7833 17.6963C33.8366 17.5823 33.8366 17.4364 33.9327 17.3488C34.1223 17.2719 34.3146 17.1977 34.4989 17.1022V16.8979C34.2291 16.9457 33.9514 16.9431 33.6817 16.9988C33.412 17.0544 33.0889 17.0465 32.7979 17.1049C32.5067 17.1632 32.2425 17.1394 31.9701 17.1871C31.8205 17.1843 31.6738 17.2242 31.5242 17.2215L31.4948 17.2428L31.2731 17.2534C31.1611 17.2772 31.0462 17.2772 30.9367 17.3038C30.8272 17.3303 30.667 17.317 30.5335 17.3408C30.229 17.3648 29.9193 17.3754 29.6176 17.4258C29.5028 17.4311 29.3906 17.4364 29.2784 17.4496C28.8405 17.4364 28.4052 17.3648 27.97 17.3461C27.7912 17.3223 27.6068 17.3276 27.4333 17.2799C26.9421 17.2587 26.4586 17.1526 25.9647 17.1367C25.7938 17.1128 25.6228 17.1075 25.4546 17.065C25.217 17.0492 24.982 17.0146 24.7443 17.0014C24.4774 16.9457 24.205 16.9298 23.9353 16.9272L23.9006 17.0544C24.1382 17.2004 24.4026 17.2931 24.6403 17.4364C24.6642 17.5981 24.7204 17.7573 24.7605 17.9191Z" fill="#7B7B7B"/>
</g>
<mask id="mask2_3009_10526" style="mask-type:luminance" maskUnits="userSpaceOnUse" x="18" y="18" width="12" height="24">
<path d="M18.3998 18.9418H29.217V41.3558H18.3998V18.9418Z" fill="white"/>
</mask>
<g mask="url(#mask2_3009_10526)">
<path d="M39.4226 31.128C39.2143 30.9555 39.0729 30.7168 38.8618 30.5471C38.6376 30.3111 38.4053 30.0804 38.1676 29.8577C37.9807 29.6587 37.7804 29.4677 37.5934 29.2689C37.6308 29.1681 37.7083 29.0886 37.7565 28.9931C37.8711 28.7782 38.026 28.5845 38.1382 28.3699C38.2504 28.155 38.3812 28.0197 38.4748 27.8288C38.5682 27.6378 38.6936 27.4469 38.8271 27.2719C38.974 27.0544 39.1075 26.829 39.2517 26.6089C39.3798 26.439 39.4734 26.2481 39.6069 26.0811C39.7403 25.914 39.8846 25.6701 40.0341 25.4737L40.0262 25.4313C39.8498 25.3597 39.6976 25.2404 39.5188 25.1741C39.1689 24.9831 38.8005 24.8292 38.4427 24.6516C38.0313 24.4473 37.6042 24.2829 37.2064 24.0575C37.038 23.9807 36.8698 23.9036 36.6937 23.8374C36.6937 24.2299 36.7576 24.6197 36.7443 25.0124C36.6727 24.9327 36.6069 24.8487 36.5467 24.7603C36.4133 24.5534 36.2263 24.3864 36.0847 24.1849C35.9433 23.9833 35.7616 23.779 35.6282 23.5563C35.4364 23.3176 35.2584 23.0693 35.0942 22.8111C34.934 22.591 34.7603 22.3788 34.6081 22.1534C34.4693 21.9782 34.3198 21.8193 34.1969 21.6362L34.277 21.5965L34.3465 21.591L34.3731 21.5725C34.4472 21.5605 34.5202 21.5436 34.5921 21.5221C34.7444 21.4851 34.8993 21.4664 35.046 21.416C35.281 21.3709 35.5134 21.302 35.751 21.2676C35.9887 21.2331 36.1756 21.1642 36.3892 21.1217L36.4613 21.1085C36.5612 21.0816 36.6627 21.0629 36.7658 21.0528C36.7791 21.3975 36.8459 21.7396 36.8512 22.087C36.8939 22.5114 36.934 22.9331 36.9607 23.3575C37.0034 23.437 37.0435 23.5245 37.1236 23.5695C37.2037 23.6146 37.3239 23.6199 37.4226 23.6518C37.5215 23.6835 37.687 23.7154 37.8018 23.7896L37.922 23.7949C37.977 23.7528 38.0348 23.7148 38.0955 23.6809L38.1223 23.6014C38.0902 23.4768 38.0795 23.3467 38.0554 23.2221C37.9968 22.9861 37.9968 22.7421 37.9406 22.5061C37.9228 22.4292 37.9139 22.3516 37.9139 22.2727L37.8926 22.2435C37.8738 21.9492 37.8098 21.6601 37.7804 21.3656C37.7668 21.2123 37.7437 21.0602 37.7109 20.9095C37.6923 20.7345 37.6735 20.5595 37.6443 20.3872C37.6202 20.2784 37.5268 20.2146 37.4414 20.1536C37.1836 19.9418 36.9433 19.7121 36.7203 19.4642C36.5467 19.3077 36.3945 19.1327 36.2263 18.9709L36.0661 19C35.7725 19.0796 35.4653 19.0902 35.1796 19.1963L35.1128 19.2069C34.7043 19.3315 34.285 19.4217 33.8739 19.541C33.6442 19.6073 33.4118 19.6685 33.1795 19.7241L33.1262 19.7427C33.0033 19.7744 32.8779 19.7983 32.755 19.8221C32.5681 19.8939 32.3598 19.8831 32.1782 19.9734L32.1702 20.0609C32.1275 20.3128 32.0901 20.5648 32.026 20.8114C32.0153 20.9361 31.9859 21.0607 31.9832 21.1853L32.058 21.2012C32.2983 21.3843 32.5094 21.6044 32.7336 21.8059C32.9099 21.9492 33.0593 22.1189 33.2304 22.2674C33.4012 22.4158 33.5187 22.514 33.6548 22.6441C33.8471 22.8164 34.0314 22.9967 34.237 23.1532C34.4426 23.3097 34.6455 23.4528 34.8165 23.6412C34.9072 23.7339 34.95 23.8561 35.0327 23.954C35.1155 24.0522 35.1582 24.1928 35.2436 24.3016C35.329 24.4103 35.4226 24.5853 35.5187 24.7232C35.6149 24.8611 35.695 25.0043 35.7964 25.1343C36.002 25.3941 36.1703 25.6806 36.3679 25.9459C36.5173 26.1394 36.6242 26.3595 36.7791 26.5478C36.8886 26.6725 36.974 26.8156 37.0727 26.9483C36.9499 27.0941 36.8271 27.24 36.699 27.3806C36.4533 27.6908 36.1916 27.9906 35.9327 28.2902C35.6736 28.6323 35.3638 28.9321 35.1128 29.2794C34.9714 29.4571 34.8192 29.6215 34.6855 29.8046C34.5521 29.9876 34.4132 30.1016 34.293 30.2634C34.0821 30.5313 33.8524 30.7858 33.6548 31.0642C33.5641 31.2128 33.5373 31.3851 33.468 31.5416C33.4172 31.6583 33.3932 31.7829 33.3425 31.8971C33.2624 32.1357 33.193 32.3797 33.0967 32.6132L33.0888 32.6634L33.0461 32.7695C33.0113 32.8782 32.9819 32.987 32.9418 33.0931L32.9259 33.1408C32.8564 33.3662 32.763 33.5837 32.6856 33.8065C32.6081 34.0292 32.5548 34.1963 32.4906 34.3926L32.4586 34.4695C32.4132 34.6286 32.4158 34.7931 32.3838 34.9548C32.3731 35.0715 32.3758 35.1908 32.3678 35.3101L32.3731 35.289C32.3384 35.6284 32.3437 35.9733 32.261 36.3048C32.1435 36.2624 32.0501 36.1774 31.9459 36.1085C31.8528 36.0431 31.7674 35.9687 31.6896 35.8857C31.2995 36.1254 30.89 36.326 30.4613 36.4878C30.2076 36.615 29.9459 36.7158 29.6896 36.8351C29.5454 36.8882 29.4146 36.9784 29.2623 37.0075C29.1581 36.9996 29.0674 36.9465 28.974 36.9067C28.7443 36.7953 28.4987 36.7185 28.277 36.5939C27.807 36.3975 27.3157 36.2225 26.9072 35.9122C26.7282 36.0262 26.5386 36.1323 26.3731 36.265C26.3091 36.2146 26.2476 36.1668 26.1836 36.1191C26.1515 35.6046 26.1354 35.09 26.0714 34.5809L26.05 34.5571V34.4774C25.9646 34.2707 25.9165 34.0479 25.8311 33.841L25.7749 33.7083C25.6948 33.4432 25.5988 33.1806 25.508 32.9181L25.4545 32.7802C25.4091 32.6555 25.3744 32.5282 25.3211 32.4063C25.3023 32.3453 25.2863 32.2815 25.2704 32.2205L25.233 32.1756C25.2085 32.0738 25.1738 31.9756 25.1288 31.8811C25.0673 31.6742 24.9953 31.4701 24.9232 31.2658C24.867 31.104 24.763 30.9689 24.6508 30.8414C24.4933 30.6611 24.3598 30.4595 24.1996 30.2792C23.8925 29.9266 23.5988 29.5658 23.3103 29.2C22.8376 28.6191 22.3437 28.0595 21.8631 27.4839C21.7135 27.3063 21.5533 27.1366 21.4172 26.951C21.5854 26.7095 21.7856 26.4921 21.9325 26.2376C22.066 26.0412 22.2129 25.853 22.3384 25.6514C22.488 25.3915 22.6989 25.1768 22.8511 24.9195C22.9659 24.7577 23.0647 24.588 23.1875 24.4315C23.3103 24.275 23.4145 24.0549 23.5293 23.8693C23.6949 23.5882 23.9752 23.4104 24.2182 23.2036C24.4452 23.0418 24.624 22.827 24.8431 22.6573C25.1421 22.3788 25.4439 22.1057 25.7375 21.8219C25.994 21.5965 26.2343 21.3551 26.504 21.1482C26.4799 21.0236 26.464 20.8963 26.4425 20.7717C26.3704 20.5065 26.3545 20.2307 26.285 19.9628C26.1381 19.9177 25.9833 19.8992 25.8338 19.8752C25.6842 19.8514 25.468 19.7957 25.2863 19.7453C25.038 19.6764 24.7869 19.6181 24.5386 19.5463L24.4718 19.5172C24.3917 19.4933 24.3089 19.4748 24.2288 19.4536C24.0633 19.3926 23.8898 19.3687 23.7243 19.3183C23.5587 19.2679 23.3638 19.2309 23.1901 19.1671C22.9693 19.1089 22.7459 19.063 22.5199 19.0292L22.4132 19C22.3691 18.9871 22.3248 18.9765 22.2796 18.9683C22.1061 19.0955 21.9645 19.2626 21.8097 19.4138C21.5933 19.6233 21.3931 19.8487 21.1634 20.0476C21.0727 20.1219 21.0005 20.2201 20.9018 20.289C20.8618 20.3234 20.8029 20.3526 20.8083 20.411C20.8056 20.5435 20.7976 20.6762 20.7976 20.8061L20.7763 20.8406C20.7735 20.9837 20.7281 21.1191 20.7175 21.2595C20.7016 21.3603 20.6989 21.4612 20.6748 21.562C20.6716 21.6325 20.6627 21.7023 20.648 21.7715C20.608 22.0075 20.5841 22.2488 20.5413 22.4849C20.4986 22.7209 20.4692 22.8853 20.4451 23.0896C20.4204 23.1683 20.4044 23.2487 20.3971 23.3309C20.3811 23.4953 20.3411 23.6597 20.3411 23.8268L20.5172 23.7526C20.7202 23.7234 20.9339 23.7207 21.126 23.6412L21.1848 23.6305L21.3718 23.5748L21.4411 23.5483C21.4599 23.3229 21.5159 23.1028 21.5292 22.8774C21.5613 22.5512 21.6174 22.225 21.6387 21.8961C21.6602 21.5673 21.6788 21.318 21.7108 21.0315C21.7936 21.0581 21.879 21.0819 21.9645 21.1059C22.2689 21.1695 22.5734 21.2357 22.8803 21.2941C23.1875 21.3524 23.5641 21.4638 23.9111 21.5195L23.9912 21.5514C24.0914 21.576 24.1929 21.5937 24.2956 21.6044C24.2225 21.7115 24.1424 21.8132 24.0553 21.9093C23.8363 22.2144 23.6068 22.5087 23.3851 22.8111C23.1635 23.1134 22.9392 23.4132 22.7389 23.7313C22.6455 23.864 22.5307 23.9833 22.4371 24.1158C22.3186 24.2801 22.1903 24.4366 22.0527 24.5853C21.9217 24.7311 21.823 24.901 21.6814 25.0388C21.6814 24.8107 21.7215 24.5853 21.7536 24.3599C21.7637 24.1828 21.7841 24.0068 21.8151 23.8321C21.5666 23.9435 21.3023 24.0258 21.0673 24.1636C20.8323 24.3016 20.5546 24.3996 20.2955 24.5138C20.0366 24.6278 19.7616 24.7868 19.4839 24.9036C19.1127 25.0599 18.7656 25.2616 18.3998 25.426C18.4799 25.5294 18.5465 25.6435 18.6187 25.7522C18.7523 25.9431 18.8804 26.1368 19.0059 26.3303C19.07 26.4284 19.1555 26.5134 19.2115 26.6168C19.3984 26.9721 19.6547 27.2851 19.855 27.6325C20.0552 27.9799 20.2502 28.2876 20.4666 28.6085C20.5733 28.7914 20.7149 28.9532 20.8136 29.1416C20.8323 29.1866 20.883 29.2317 20.8536 29.2821C20.7709 29.4254 20.6401 29.5288 20.5226 29.6428C20.2876 29.8788 20.0446 30.1095 19.8069 30.3429C19.7135 30.4516 19.6173 30.5577 19.5133 30.6585C19.4091 30.7593 19.2942 30.9185 19.1661 31.0298C19.038 31.1412 18.8857 31.3321 18.7175 31.4514L18.7096 31.5284C18.8324 31.5496 18.9525 31.5815 19.0754 31.6053C19.1982 31.6292 19.3984 31.6715 19.5586 31.7166L19.6388 31.7459C19.7642 31.7723 19.887 31.8069 20.0125 31.8414C20.138 31.8758 20.2849 31.8837 20.413 31.9288C20.7016 32.0164 21.0005 32.0668 21.2944 32.1384L21.3984 32.1675C21.5167 32.1866 21.6334 32.2131 21.7482 32.2471C21.8323 32.2699 21.9178 32.2858 22.0045 32.2949C21.7669 32.6874 21.6414 33.1329 21.4172 33.5333C21.3824 33.5943 21.3236 33.6634 21.369 33.7349C21.4973 33.9736 21.6093 34.2229 21.7188 34.4721C21.9699 34.8461 22.1995 35.2359 22.4371 35.6179C22.6856 35.9467 22.8644 36.318 23.1074 36.6522C23.1893 36.8077 23.2729 36.9624 23.3583 37.1162C23.3691 36.7742 23.3611 36.4347 23.3718 36.0926C23.3931 35.9282 23.3877 35.7611 23.4012 35.5941C23.4251 35.4746 23.4065 35.3553 23.4358 35.2359C23.4572 34.7957 23.4813 34.3581 23.5132 33.9179C23.5214 33.8675 23.5132 33.8091 23.5533 33.7721C23.6922 33.5996 23.871 33.467 24.0259 33.3105C24.1808 33.154 24.3116 33.0666 24.4399 32.926C24.568 32.7855 24.6776 32.7217 24.7924 32.6158C24.7869 32.7059 24.7896 32.7987 24.7656 32.8862C24.7457 32.9979 24.7314 33.1101 24.7229 33.2231C24.6694 33.3689 24.6614 33.5254 24.632 33.6766C24.6214 33.7136 24.6108 33.7481 24.6001 33.7853L24.5948 33.8648L24.5734 33.8967C24.5574 34.0717 24.5253 34.2467 24.5012 34.4191L24.4692 34.5252C24.4426 34.6658 24.4211 34.8089 24.3891 34.9496C24.3571 35.09 24.3304 35.3156 24.293 35.4959C24.2651 35.5954 24.2428 35.6962 24.2262 35.7981C24.1996 36.0396 24.1248 36.2729 24.0794 36.5116L24.05 36.5912C24.0233 36.6973 23.9993 36.8034 23.9752 36.9121L23.9432 36.9916C23.9299 37.0711 23.9031 37.1508 23.9004 37.2303C23.9405 37.3815 24.0312 37.5114 24.1034 37.6467C24.1755 37.7819 24.277 37.9571 24.3517 38.1187C24.4392 38.2484 24.5149 38.3846 24.5787 38.5272C24.7068 38.7234 24.7924 38.9435 24.9285 39.1319C25.0646 39.3201 25.1474 39.5349 25.2596 39.7339C25.3059 39.8296 25.3575 39.9225 25.4145 40.0124L25.4306 40.0601C25.5534 40.2404 25.6441 40.442 25.759 40.6276C25.7696 40.5534 25.7829 40.479 25.799 40.4075L25.8311 40.304C25.8391 40.2697 25.8471 40.2325 25.855 40.1979L25.8791 40.1132L25.8978 40.0945C25.9197 39.9487 25.9499 39.8046 25.9887 39.6622C26.034 39.5085 26.0473 39.3467 26.1062 39.1955L26.1755 38.9329C26.5386 39.2353 26.9178 39.5217 27.2998 39.7975C27.4065 39.877 27.4892 39.9831 27.5987 40.0575C27.7083 40.1317 27.8632 40.2695 28.0072 40.3597C28.1226 40.4319 28.2286 40.5161 28.325 40.6117C28.4934 40.7709 28.6989 40.8902 28.8724 41.0467C28.9953 41.142 29.1074 41.2534 29.2276 41.3516C29.3157 41.2774 29.3984 41.1951 29.4894 41.1235C29.7483 40.9299 29.9859 40.7125 30.245 40.5189C30.4292 40.3518 30.6456 40.2272 30.8297 40.0628C31.014 39.8983 31.2623 39.7126 31.4893 39.5508C31.7537 39.3441 32.0206 39.1398 32.2983 38.9516C32.3251 39.0577 32.3492 39.161 32.3785 39.267L32.4105 39.3467C32.432 39.4607 32.4479 39.5774 32.4773 39.6914C32.544 39.8506 32.5521 40.0256 32.5869 40.1953L32.6135 40.2776C32.6402 40.3916 32.6615 40.5083 32.6856 40.625L32.7256 40.6117C32.7524 40.5402 32.7861 40.4721 32.8272 40.4075C32.9954 40.1821 33.0994 39.9195 33.241 39.6782C33.3826 39.4368 33.5428 39.1319 33.7057 38.8666C34.0047 38.2965 34.3331 37.7422 34.6081 37.1587C34.5762 37.0951 34.5468 37.0315 34.5174 36.9652C34.4399 36.676 34.3704 36.3817 34.3091 36.09C34.2638 35.9042 34.2584 35.7134 34.2102 35.5276C34.1622 35.342 34.1436 35.1008 34.0848 34.8939C34.0261 34.687 34.0234 34.5439 33.986 34.3687C33.9486 34.1937 33.9352 33.9922 33.8818 33.8091C33.8285 33.6262 33.8232 33.3795 33.7643 33.1674C33.7057 32.9552 33.6975 32.7935 33.6789 32.6051C33.815 32.7272 33.9486 32.8518 34.0927 32.9605C34.245 33.1276 34.4293 33.2601 34.5895 33.4193C34.7256 33.5386 34.8458 33.6766 34.9874 33.788C34.9874 34.0345 35.0168 34.2786 35.0194 34.5252C35.0387 34.6997 35.0467 34.8749 35.0434 35.0504L35.0675 35.0794C35.0675 35.2095 35.0621 35.342 35.0834 35.4693C35.1235 36.0156 35.1235 36.562 35.1288 37.1083C35.1612 37.0728 35.1888 37.0339 35.2117 36.9916C35.2518 36.8351 35.3425 36.7 35.4253 36.5646C35.5695 36.3154 35.7484 36.0847 35.8871 35.83C36.1141 35.517 36.3038 35.1803 36.512 34.8567C36.5868 34.7532 36.6322 34.6313 36.7096 34.5278C36.8725 34.313 36.9366 34.0479 37.0541 33.8091C37.0809 33.7508 37.1128 33.6898 37.0968 33.6235C37.0809 33.5573 37.0114 33.4485 36.9767 33.3583C36.942 33.2681 36.8778 33.1567 36.8404 33.0534C36.7817 32.8412 36.6456 32.6608 36.5762 32.4514L36.5014 32.2949C36.7043 32.2498 36.9072 32.202 37.1101 32.1595L37.2197 32.1304C37.3239 32.1038 37.4306 32.0827 37.5374 32.0615C37.695 32.0111 37.8578 31.9872 38.0207 31.9581L38.1008 31.9262C38.2263 31.8971 38.3518 31.8758 38.4748 31.8441L38.5522 31.8148C38.6876 31.7917 38.8213 31.7598 38.9527 31.7193C39.1129 31.6742 39.2758 31.6451 39.436 31.6026L39.7057 31.5496L39.8231 31.539C39.6949 31.3904 39.5454 31.2711 39.4226 31.128Z" fill="#7B7B7B"/>
</g>
<mask id="mask3_3009_10526" style="mask-type:luminance" maskUnits="userSpaceOnUse" x="22" y="22" width="8" height="12">
<path d="M22.3538 22.5383H29.2171V33.3686H22.3538V22.5383Z" fill="white"/>
</mask>
<g mask="url(#mask3_3009_10526)">
<path d="M33.7457 29.1475C34.0047 28.9379 34.2476 28.7072 34.52 28.5109C34.6081 28.4499 34.6802 28.3704 34.7603 28.2987C34.9046 28.1688 35.0701 28.0601 35.2062 27.9195C35.3425 27.779 35.508 27.6729 35.655 27.5428C35.8017 27.4129 35.9219 27.3148 36.0608 27.2087C35.9486 27.0469 35.807 26.9064 35.6842 26.7526C35.5614 26.5987 35.3852 26.4264 35.2518 26.2514C35.0568 25.9861 34.8057 25.7607 34.6696 25.4558C34.6028 25.294 34.5174 25.1402 34.4479 24.9784C34.4079 24.8908 34.3678 24.7981 34.293 24.7345C34.1436 24.5991 34.01 24.4479 33.8498 24.326C33.5845 24.0837 33.3121 23.8495 33.0328 23.6231C32.9111 23.5061 32.7838 23.3957 32.6509 23.2916C32.4479 23.1406 32.261 22.9707 32.0688 22.8091C31.9753 22.7321 31.8712 22.6631 31.783 22.5782L31.7403 22.5703C31.2385 22.8476 30.7205 23.0907 30.1862 23.2995C29.8711 23.4083 29.5748 23.5595 29.2703 23.6922C29.1369 23.6896 29.022 23.6125 28.8992 23.5727C28.4586 23.3473 27.978 23.2121 27.5374 22.9867C27.2624 22.8514 26.9793 22.7294 26.7149 22.5676C26.2503 22.9735 25.7616 23.3473 25.2996 23.7558C25.0808 23.9255 24.8778 24.1138 24.6694 24.2969C24.5092 24.4109 24.3784 24.5567 24.2288 24.6814C24.1346 24.7621 24.0678 24.8611 24.0286 24.9784C23.9939 25.0739 23.9378 25.1587 23.8978 25.2516C23.8177 25.4028 23.7697 25.5725 23.6601 25.7077C23.4092 26.0233 23.1527 26.3363 22.8804 26.6359C22.7313 26.8251 22.5692 27.0028 22.3944 27.169L22.4052 27.2034C22.6615 27.3918 22.8832 27.6225 23.1315 27.8215C23.2729 27.9247 23.3851 28.0627 23.524 28.1715C23.8017 28.381 24.0474 28.6302 24.3357 28.8292C24.6241 29.028 24.8858 29.2668 25.1368 29.5134C25.3397 29.691 25.5373 29.8794 25.751 30.0465C25.7136 30.3144 25.6335 30.5743 25.5935 30.842C25.5311 31.0691 25.4893 31.2999 25.468 31.5343C25.6548 31.6908 25.9004 31.7491 26.1115 31.8684L26.1542 31.9772L26.1755 32.0806C26.2396 32.2794 26.2423 32.4943 26.3064 32.6932C26.3357 32.8178 26.3651 32.9452 26.4158 33.0646C26.4666 33.1839 26.4746 33.2396 26.5012 33.327C26.6295 33.1971 26.7656 33.0698 26.8858 32.9345C26.8805 32.8258 26.8991 32.6853 26.8057 32.6056C27.0727 32.4943 27.3505 32.4095 27.6147 32.2875C27.8791 32.1654 28.1595 32.0487 28.4345 31.9347C28.6589 31.826 28.8831 31.7199 29.1181 31.6324C29.1743 31.6085 29.2382 31.5715 29.2997 31.6085C29.4947 31.6961 29.6949 31.7782 29.8899 31.8711C30.2369 32.0249 30.5841 32.1708 30.9339 32.3192C31.1342 32.4068 31.3344 32.5156 31.5561 32.5341C31.5907 32.6853 31.5827 32.8418 31.6469 32.9849C31.7109 33.1282 31.7403 33.2422 31.8578 33.319C31.9646 33.1971 32.0368 33.0485 32.0954 32.9001C32.1543 32.7516 32.1649 32.6668 32.2156 32.558C32.245 32.3538 32.253 32.1469 32.2797 31.94C32.5039 31.7756 32.7843 31.704 33.006 31.5316C33.0087 31.3672 32.9633 31.2107 32.9419 31.0489C32.8726 30.8977 32.8644 30.728 32.8272 30.5662C32.8004 30.4656 32.7604 30.37 32.7283 30.2745C32.7177 30.2188 32.675 30.1579 32.6882 30.1022C33.0354 29.7786 33.3826 29.4524 33.7457 29.1475ZM32.4506 26.9383C32.3304 26.994 32.2129 27.0576 32.0901 27.1028C31.9673 27.1477 31.8952 27.0947 31.8071 27.1345C31.6708 27.2617 31.5694 27.4182 31.4573 27.5642C31.3451 27.7101 31.2249 27.8585 31.1048 28.0018C31.1134 28.0649 31.1277 28.1267 31.1475 28.1873C31.1795 28.4367 31.2143 28.6886 31.2623 28.9353C31.2676 29.081 31.2676 29.227 31.2758 29.3729L31.3077 29.4577C31.313 29.5107 31.3772 29.5851 31.3158 29.6274C31.1315 29.6434 30.9446 29.6247 30.7604 29.6327C30.5119 29.882 30.2289 30.0889 29.9806 30.3408C29.7596 30.5945 29.5166 30.8252 29.2517 31.0331C29.1448 30.9481 29.022 30.8871 28.9231 30.7916C28.7764 30.6432 28.6295 30.4999 28.496 30.3408C28.2449 30.1286 28.0287 29.8794 27.7616 29.6884C27.6001 29.658 27.4372 29.6456 27.273 29.6513L27.2089 29.569C27.2062 29.3993 27.2035 29.2323 27.2115 29.0652C27.2266 28.9677 27.2346 28.8695 27.2356 28.7709L27.2597 28.7469C27.2783 28.4605 27.3478 28.1768 27.3451 27.8877C27.176 27.7686 27.0407 27.6192 26.9393 27.4396C26.9019 27.3758 26.8725 27.3095 26.8218 27.2564C26.7709 27.2034 26.6295 27.1585 26.5253 27.1292C26.3784 27.0867 26.2423 27.0231 26.1007 26.9701C25.9593 26.917 25.8044 26.8322 25.6521 26.7765C25.5961 26.7579 25.5373 26.7394 25.4972 26.6969C25.2062 26.4052 24.9739 26.0631 24.7068 25.7501C24.6855 25.7235 24.6561 25.6892 24.6776 25.652C24.7657 25.4823 24.9018 25.3497 25.0354 25.2144C25.1073 25.1349 25.2275 25.1375 25.3076 25.0686C25.4572 25.0605 25.5988 25.1083 25.7429 25.1375L25.9192 25.1906L25.9993 25.217C26.1622 25.2833 26.3383 25.3072 26.5067 25.3656L26.6962 25.4292L26.7763 25.4558C26.9152 25.5115 27.0621 25.5432 27.2062 25.591L27.265 25.5989L27.3184 25.6546C27.3385 25.7647 27.3643 25.8734 27.3958 25.9808C27.4252 26.1479 27.4465 26.3176 27.4733 26.4847C27.5401 26.6731 27.5346 26.8745 27.5693 27.0656C27.5855 27.1186 27.5961 27.1717 27.6094 27.2274C27.6494 27.5536 27.6976 27.8798 27.7136 28.2087C27.703 28.304 27.695 28.3995 27.6762 28.495C27.6735 28.731 27.6067 28.9617 27.6094 29.1979C28.3197 29.1951 29.0273 29.2085 29.7377 29.2005C30.1355 29.2005 30.5334 29.1951 30.9313 29.2005C30.9125 29.1422 30.8965 29.0865 30.8779 29.028C30.8591 28.9697 30.8698 28.9617 30.8671 28.9274C30.8217 28.7072 30.8031 28.4845 30.7764 28.2617C30.7577 28.0918 30.7764 27.9195 30.8111 27.755C30.8458 27.5906 30.8458 27.3812 30.8885 27.2008C30.9311 26.9752 30.9623 26.748 30.9819 26.5192L31.0034 26.49L31.0114 26.4105C31.0567 26.1719 31.0915 25.9278 31.1448 25.6892L31.1742 25.6282C31.3318 25.5591 31.4973 25.5221 31.6628 25.4743L31.7137 25.4611L31.7938 25.4319L31.9005 25.3975C32.2477 25.2914 32.5975 25.1932 32.9473 25.0977C33.0514 25.0605 33.1582 25.1003 33.2651 25.103C33.5161 25.2012 33.759 25.4054 33.7805 25.6918C33.7564 25.8536 33.6442 25.9808 33.532 26.0922C33.3691 26.2672 33.2277 26.4635 33.0461 26.62C33.0019 26.6642 32.9618 26.7119 32.9259 26.7632L32.8591 26.7845C32.7042 26.7871 32.584 26.8798 32.4506 26.9383Z" fill="#7B7B7B"/>
</g>
<path d="M26.2904 25.825C26.2103 25.7136 26.0607 25.6951 25.946 25.6341C25.7644 25.5439 25.5694 25.4935 25.3718 25.4484C25.2776 25.4943 25.1807 25.5333 25.0808 25.5652C25.1235 25.6579 25.1957 25.7323 25.265 25.8065C25.3718 25.939 25.4787 26.0717 25.5854 26.2042C25.6495 26.2865 25.7537 26.3183 25.8498 26.3502C26.024 26.4328 26.2046 26.4972 26.3919 26.5437C26.4356 26.5557 26.48 26.5587 26.5249 26.5528C26.5699 26.5467 26.6118 26.5323 26.6508 26.5093C26.6508 26.4589 26.6508 26.4085 26.6482 26.3581C26.5548 26.1618 26.4105 26.0028 26.2904 25.825Z" fill="#7B7B7B"/>
<mask id="mask4_3009_10526" style="mask-type:luminance" maskUnits="userSpaceOnUse" x="26" y="32" width="4" height="5">
<path d="M26.7787 32.8192H29.2172V36.1614H26.7787V32.8192Z" fill="white"/>
</mask>
<g mask="url(#mask4_3009_10526)">
<path d="M30.8087 33.8548C30.6565 33.7408 30.5149 33.6162 30.3628 33.4995C30.077 33.2847 29.7992 33.0485 29.4682 32.8975L29.3881 32.8735L29.2839 32.8418C29.2011 32.8573 29.1202 32.8795 29.0409 32.9081L28.9101 32.9532C28.6778 33.0566 28.4828 33.2184 28.2852 33.3721C28.1785 33.4835 28.0343 33.5471 27.9221 33.6506C27.7271 33.8284 27.503 33.9715 27.3027 34.1439C27.2065 34.2262 27.1317 34.3296 27.0383 34.417C26.9449 34.5046 26.9075 34.5762 26.8967 34.677C26.8834 34.769 26.8619 34.8591 26.8327 34.9475C26.8139 35.0032 26.8006 35.0615 26.7847 35.1172L26.9128 35.218C27.1068 35.2892 27.2964 35.3707 27.4815 35.4619C27.6205 35.515 27.7619 35.568 27.8982 35.629C28.1277 35.7325 28.3735 35.7934 28.5977 35.9075L28.6404 35.9182C28.8247 35.9898 28.9982 36.0825 29.1852 36.1516C29.3374 36.1568 29.4682 36.0693 29.6045 36.0189C30.0103 35.8333 30.4348 35.6926 30.8434 35.5123C31.0384 35.4276 31.2305 35.3373 31.4308 35.2684C31.5082 35.2359 31.582 35.197 31.6525 35.1518C31.6392 34.9739 31.6018 34.8016 31.5644 34.6292C31.4281 34.2792 31.0811 34.0882 30.8087 33.8548Z" fill="#7B7B7B"/>
</g>
</g>
<defs>
<clipPath id="clip0_3009_10526">
<rect width="60" height="60" fill="white"/>
</clipPath>
</defs>
</svg>
